<?xml version="1.0" standalone="no"?><!DOCTYPE svg PUBLIC "-//W3C//DTD SVG 1.1//EN" "http://www.w3.org/Graphics/SVG/1.1/DTD/svg11.dtd"><svg t="1505274825274" class="icon" style="" viewBox="0 0 1024 1024" version="1.1" xmlns="http://www.w3.org/2000/svg" p-id="1044" xmlns:xlink="http://www.w3.org/1999/xlink" width="16" height="16"><defs><style type="text/css"></style></defs><path d="M494.9 707.3l8.9 40.3-118.6 26-8.9-40.3 118.6-26z m71.6-375.1l66.3 182.7-38.9 14.1-66.3-182.7 38.9-14.1z m52.3-109.5l123.6 4.6-1.5 41.3-123.6-4.6 1.5-41.3z" fill="#ffffff" p-id="1045"></path><path d="M256.7 926.9c-81.3 0-147.4-66.1-147.4-147.4 0-81.3 66.1-147.4 147.4-147.4 81.3 0 147.4 66.1 147.4 147.4 0 81.3-66.1 147.4-147.4 147.4z m0-253.5c-58.5 0-106.1 47.6-106.1 106.1 0 58.5 47.6 106.1 106.1 106.1 58.5 0 106.1-47.6 106.1-106.1 0-58.5-47.6-106.1-106.1-106.1z m417.6 216.1c-110 0-199.6-89.5-199.6-199.6 0-110 89.5-199.6 199.6-199.6 110 0 199.6 89.5 199.6 199.6-0.1 110.1-89.6 199.6-199.6 199.6z m0-357.9c-87.3 0-158.3 71-158.3 158.3 0 87.3 71 158.3 158.3 158.3 87.3 0 158.3-71 158.3-158.3 0-87.3-71-158.3-158.3-158.3zM510.2 366.5c-71 0-128.7-57.8-128.7-128.8 0-71 57.8-128.7 128.7-128.7 71 0 128.7 57.8 128.7 128.7 0.1 71-57.7 128.8-128.7 128.8z m0-216.2c-48.3 0.1-87.4 39.2-87.5 87.5 0 48.3 39.2 87.4 87.5 87.5 48.3-0.1 87.4-39.2 87.5-87.5 0-48.3-39.2-87.5-87.5-87.5z m287.1 178.9c-42.2 0-76.6-34.3-76.6-76.6 0-42.2 34.3-76.6 76.6-76.6s76.6 34.3 76.6 76.6c-0.1 42.3-34.4 76.6-76.6 76.6z m0-111.8c-19.4 0-35.3 15.8-35.3 35.3s15.8 35.3 35.3 35.3 35.3-15.8 35.3-35.3-15.9-35.3-35.3-35.3z" fill="#ffffff" p-id="1046"></path></svg>